#N canvas 128 154 512 340 10;
#X obj 14 166 vu 15 120 empty empty -1 -8 0 10 -66577 -1 1 0;
#X obj 13 136 r toLVU;
#X obj 68 167 vu 15 120 empty empty -1 -8 0 10 -66577 -1 1 0;
#X obj 67 137 r toRVU;
#X obj 159 99 osc~ 440;
#X obj 160 166 *~;
#X obj 160 196 *~ 0.1;
#X obj 237 135 *~;
#X obj 237 110 osc~ 2;
#X obj 237 61 knob 32 32 0 127 0 0 empty empty empty 0 -8 0 8 -262144
-1 -1 1100 1;
#X obj 287 111 hsl 30 15 0 2 0 0 empty empty empty -2 -8 0 10 -262144
-1 -1 2900 1;
#X text 286 125 Depth;
#X obj 159 223 env~;
#X obj 12 11 pddp/dsp;
#X obj 159 249 - 100;
#X obj 159 274 s toLVU;
#X obj 328 99 osc~ 440;
#X obj 329 166 *~;
#X obj 329 196 *~ 0.1;
#X obj 406 135 *~;
#X obj 406 110 osc~ 2;
#X obj 406 61 knob 32 32 0 127 0 0 empty empty empty 0 -8 0 8 -262144
-1 -1 900 1;
#X obj 456 111 hsl 30 15 0 2 0 0 empty empty empty -2 -8 0 10 -262144
-1 -1 2900 1;
#X text 455 125 Depth;
#X obj 328 223 env~;
#X obj 328 249 - 100;
#X obj 328 274 s toRVU;
#X obj 234 238 dac~ 1 2;
#X connect 1 0 0 0;
#X connect 3 0 2 0;
#X connect 4 0 5 0;
#X connect 5 0 6 0;
#X connect 6 0 12 0;
#X connect 6 0 27 0;
#X connect 7 0 5 1;
#X connect 8 0 7 0;
#X connect 9 0 8 0;
#X connect 10 0 7 1;
#X connect 12 0 14 0;
#X connect 14 0 15 0;
#X connect 16 0 17 0;
#X connect 17 0 18 0;
#X connect 18 0 24 0;
#X connect 18 0 27 1;
#X connect 19 0 17 1;
#X connect 20 0 19 0;
#X connect 21 0 20 0;
#X connect 22 0 19 1;
#X connect 24 0 25 0;
#X connect 25 0 26 0;
